<svg xmlns="http://www.w3.org/2000/svg" viewBox="0 0 24 24" fill="none" stroke="#4361ee" stroke-width="2" stroke-linecap="round" stroke-linejoin="round">
  <path d="M12 3c.53 0 1.039.21 1.414.586.375.375.586.884.586 1.414 0 .53-.21 1.039-.586 1.414-.375.375-.884.586-1.414.586-.53 0-1.039-.21-1.414-.586C10.21 6.039 10 5.53 10 5c0-.53.21-1.039.586-1.414C10.961 3.21 11.47 3 12 3z"/>
  <path d="M12 14c.53 0 1.039.21 1.414.586.375.375.586.884.586 1.414 0 .53-.21 1.039-.586 1.414-.375.375-.884.586-1.414.586-.53 0-1.039-.21-1.414-.586-.375-.375-.586-.884-.586-1.414 0-.53.21-1.039.586-1.414.375-.375.884-.586 1.414-.586z"/>
  <path d="M5 12c0-.53.21-1.039.586-1.414.375-.375.884-.586 1.414-.586.53 0 1.039.21 1.414.586.375.375.586.884.586 1.414 0 .53-.21 1.039-.586 1.414-.375.375-.884.586-1.414.586-.53 0-1.039-.21-1.414-.586C5.21 13.039 5 12.53 5 12z"/>
  <path d="M16 12c0-.53.21-1.039.586-1.414.375-.375.884-.586 1.414-.586.53 0 1.039.21 1.414.586.375.375.586.884.586 1.414 0 .53-.21 1.039-.586 1.414-.375.375-.884.586-1.414.586-.53 0-1.039-.21-1.414-.586-.375-.375-.586-.884-.586-1.414z"/>
  <path d="M7.7 7.7l8.6 8.6"/>
  <path d="M16.3 7.7l-8.6 8.6"/>
</svg> 